Patient4_TMGait_0pt4_02_left_10_EMG.mot
version=1
nRows=20
nColumns=33
inDegrees=no
endheader
time	1LAddLong	2LGlutMax	3LGlutMed	4LIliopsoas	5LSemiMemb	6LBicFemLong	7LRecFem	8LVastMed	9LVastLat	10LGasMed	11LTibAnt	12lTibPost	13LPeroneusLong	14LSol	15LExtDigLong	16LFlexDigLong	17RAddLong	18RGlutMax	19RGlutMed	20RIliopsoas	21RSemiMemb	22RBicFemLong	23RRecFem	24RVastMed	25RVastLat	26RGasMed	27RTibAnt	28RTibPost	29RPeroneusLong	30RSol	31RExtDigLong	32RFlexDigLong
13.815	0.015106	0.22171	-0.21591	0.011292	0.00061	-0.25986	-0.62805	-0.014343	0.094452	-0.034027	-0.019073	0.013428	-0.045013	-0.11337	-0.027161	0.009155	-0.10605	-0.097351	0.088501	0.051727	-0.031128	-0.073395	0.16693	-0.087891	0.061035	-0.001526	-0.44525	-0.007019	-0.019989	0.11032	0	-0.000763
13.816	0.006409	0.27939	-0.099182	0.032959	0.040131	-0.031433	-0.51529	-0.014648	0.092163	-0.066833	0.039063	-0.013733	-0.042877	-0.13779	0.20996	-0.031281	-0.13184	-0.17517	-0.075684	0.079651	-0.012207	-0.008698	0.18707	-0.11993	0.056915	0.001831	0.14801	0.001373	0.010986	0.072327	-0.002899	-0.005493
13.817	-0.002136	0.26688	0.009918	0.017548	0.009918	0.12344	-0.43366	0.00885	0.048218	-0.10284	0.12268	-0.026093	-0.015411	-0.098114	0.013123	-0.057678	-0.12299	-0.11368	0.13275	0.02533	-0.007324	-0.045776	0.24155	-0.092621	0.048676	0.003357	0.70923	-0.001526	0.089417	0.002136	-0.002747	-0.007782
13.818	-0.003967	0.30334	-0.013275	0.019531	0.002289	0.29877	-0.52658	0.033875	-0.054169	-0.09491	0.00412	-0.010529	0.016174	0.045471	-0.20798	-0.048218	-0.081024	-0.11032	0.20264	0.015717	-0.036621	0.020294	0.25192	-0.094299	0.029602	0.000305	0.6369	0.000763	0.00885	-0.05661	0.000763	-0.008392
13.819	0.003815	0.39383	0.1532	-0.01709	0.005035	0.4599	-0.62225	0.064392	-0.045166	-0.058441	0.007172	-0.001678	0.014648	0.16663	0.53192	-0.025787	-0.058289	-0.046387	0.15884	0.079346	-0.074005	0.086212	0.25818	-0.05661	0.020447	0.000458	-0.084534	-0.001984	-0.02594	-0.13321	-0.002747	-0.005798
13.82	-0.001678	0.36682	0.018311	0.00946	-0.1152	0.4985	-0.55161	0.064697	-0.11444	0.014954	-0.032501	-0.015106	0.050354	0.20889	0.37933	-0.028381	0.010529	-0.13718	-0.017548	0.15961	-0.07309	-0.023804	0.27969	-0.085297	0.019073	-0.003662	-0.64697	-0.00351	-0.051575	-0.087738	-0.000153	-0.009003
13.821	-0.007935	0.40878	0.028229	0.04425	-0.20721	0.39505	-0.52658	0.026398	-0.10468	0.076599	-0.09079	0	0.0354	0.16754	-0.11124	-0.049133	0.019073	-0.14557	-0.04715	0.088043	-0.04303	-0.070343	0.26688	-0.074463	0.00946	0.003815	0.001984	-0.00412	-0.059662	-0.048065	0.000153	-0.014954
13.822	-0.003662	0.36392	-0.009766	0.012054	-0.15579	0.29388	-0.56229	-0.024719	0.037537	0.023499	-0.11704	0.014343	-0.016632	0.089874	-0.25146	-0.058899	0.076141	-0.13489	-0.015869	0.013275	-0.02594	-0.059967	0.26276	-0.075531	0.003357	0.009766	0.49744	-0.000305	0.18951	-0.082245	-0.00061	-0.006409
13.823	-0.018616	0.19898	-0.1004	-0.002136	-0.016785	0.17151	-0.48645	-0.04715	0.033722	-0.16281	-0.067444	0.020752	-0.013275	0.050049	-0.29144	0.004425	0.10101	-0.22568	0.086823	-0.086212	-0.029297	-0.04425	0.22858	-0.081024	0.002441	0.019989	0.43274	-0.003052	0.072327	-0.14084	-0.001984	-0.008545
13.824	-0.019836	0.22278	-0.1062	0.022736	0.085602	-0.16464	-0.26108	-0.037842	0.14908	-0.0177	-0.076294	-0.010834	-0.027313	0.093536	-0.18066	0.086975	0.079346	-0.16678	0.22873	-0.16113	-0.072021	-0.003052	0.26779	-0.15396	-0.026093	0.003357	0.38101	-0.001984	-0.13489	-0.14648	-0.003052	-0.013733
13.825	-0.012054	0.24933	0.073853	0.01358	0.11719	-0.28748	-0.15488	-0.015869	0.21011	-0.026398	-0.017395	0.035553	-0.023193	0.21561	-0.15121	-0.022736	0.056763	-0.092926	0.43289	-0.14954	-0.092468	0.10193	0.25452	-0.093994	-0.018005	0.000763	0.15488	-0.001526	-0.17502	-0.08667	-0.000763	-0.015259
13.826	0.003967	0.25467	0.14496	-0.009308	0.1297	-0.48019	-0.16098	-0.027161	0.21973	0.010834	-0.042877	0.1001	-0.048828	-0.034027	-0.16266	0.01358	0.051422	-0.1474	0.15366	-0.15442	-0.096436	0.17044	0.26535	-0.12573	-0.024414	-0.000458	0.19638	-0.00824	-0.11505	-0.026245	-0.000153	-0.00824
13.827	0.003815	0.30548	0.19562	0.002747	0.015259	-0.31479	-0.16602	-0.014191	0.088654	0.07019	-0.081635	-0.027771	-0.09613	-0.21896	-0.11719	0.028076	0.055542	-0.17792	0.085602	-0.12909	-0.083923	0.21851	0.25681	-0.1474	-0.020447	-0.006714	0.23529	-0.000763	-0.074158	-0.028839	0.000763	-0.006256
13.828	0.004578	0.30304	0.10635	-0.003662	-0.036316	-0.065002	-0.21668	0.011597	-0.021057	0.000916	-0.050201	-0.035553	-0.037994	-0.092468	-0.076599	0.02655	-0.03418	-0.20599	0.17105	-0.17761	-0.055389	0.1506	0.1796	-0.16129	-0.002136	0.001831	0.13138	0.001373	-0.012817	-0.066071	0.000305	-0.003662
13.829	-0.009155	0.30243	0.05722	0.015564	-0.020447	-0.079651	-0.33096	0.050201	-0.11643	-0.12039	-0.062256	-0.061035	0.10544	-0.007935	-0.027924	0.025787	-0.05127	-0.19531	0.19058	-0.18723	-0.017853	0.083466	0.18707	-0.097198	-0.00473	0.005951	0.37918	-0.003357	0.075989	-0.071564	0	-0.002289
13.83	-0.013885	0.30121	0.1207	0.019836	0.033722	-0.1976	-0.31967	0.073242	-0.10666	-0.11475	-0.082245	0.16007	0.10056	0.093689	0.22507	0.023956	0.027161	-0.16663	0.18936	-0.11902	0.017395	-0.03006	0.18341	-0.049286	0.004883	-0.001373	0.4509	-0.005646	0.017548	0.008698	0.000763	0.005035
13.831	-0.011444	0.18021	-0.12451	0.032349	-0.020142	-0.12207	-0.26718	0.084534	0.023804	-0.092621	-0.042877	-0.014343	0.030975	0.12665	0.28229	-0.005341	0.062561	-0.20676	0.069885	-0.085144	0.000458	-0.1062	0.14343	-0.10208	-0.024109	-0.005798	0.13657	-0.006256	-0.16159	0.054321	-0.00061	-0.002441
13.832	-0.010529	0.19791	-0.08728	0.005951	-0.12543	-0.050964	-0.11139	0.049591	0.11398	-0.061493	-0.000916	-0.020905	-0.09201	0.05188	0.15167	0.010681	0.014954	-0.21149	0.10101	0.016022	-0.014496	-0.083923	0.18402	-0.12436	-0.020294	-0.000763	-0.42786	-0.005798	-0.028992	-0.001373	-0.001373	-0.005798
13.833	-0.007629	0.26413	-0.08316	-0.002441	-0.091095	0.054016	-0.13504	-0.031281	0.059357	0.002594	-0.013428	0.035553	-0.13733	0.050659	0.11749	0.009613	0.020905	-0.18356	0.18478	0.14267	-0.014954	-0.074158	0.14923	-0.069275	-0.031586	0.019989	-0.86456	-0.00473	0.14557	-0.21057	-0.004578	-0.003967
13.834	0.00061	0.29938	-0.12116	0.007019	0.048218	0.031891	-0.25436	-0.049744	0.054016	-0.065308	0.032501	-0.005646	-0.16983	0.45548	-0.18875	0.040131	-0.004272	-0.14069	0.14358	0.13626	0.001221	-0.13016	0.16678	0.021973	-0.008545	0.019531	-0.84183	-0.001984	0.21622	-0.32791	-0.000916	-0.010071
